####
#
# OBJ File Generated by Meshlab
#
####
# Object CornellBox.obj
#
# Vertices: 68
# Faces: 34
#
####
mtllib ./CornellBox.mtl

vn 0.000000 2.000000 0.000000
v -1.010000 0.000000 0.990000 0.752941 0.752941 0.752941
vn 0.000000 1.000000 0.000000
v 1.000000 0.000000 0.990000 0.752941 0.752941 0.752941
vn 0.000000 2.000000 0.000000
v 1.000000 0.000000 -1.040000 0.752941 0.752941 0.752941
vn 0.000000 1.000000 0.000000
v -0.990000 0.000000 -1.040000 0.752941 0.752941 0.752941
vn 0.000000 -2.000000 0.000000
v -1.020000 1.990000 0.990000 0.721569 0.709804 0.678431
vn 0.000000 -1.000000 0.000000
v -1.020000 1.990000 -1.040000 0.721569 0.709804 0.678431
vn 0.000000 -2.000000 0.000000
v 1.000000 1.990000 -1.040000 0.721569 0.709804 0.678431
vn 0.000000 -1.000000 0.000000
v 1.000000 1.990000 0.990000 0.721569 0.709804 0.678431
vn 0.000000 0.000000 2.000000
v -0.990000 0.000000 -1.040000 0.721569 0.709804 0.678431
vn 0.000000 0.000000 1.000000
v 1.000000 0.000000 -1.040000 0.721569 0.709804 0.678431
vn 0.000000 0.000000 2.000000
v 1.000000 1.990000 -1.040000 0.721569 0.709804 0.678431
vn 0.000000 0.000000 1.000000
v -1.020000 1.990000 -1.040000 0.721569 0.709804 0.678431
vn -2.000000 0.000000 0.000000
v 1.000000 0.000000 -1.040000 0.721569 0.709804 0.678431
vn -1.000000 0.000000 0.000000
v 1.000000 0.000000 0.990000 0.721569 0.709804 0.678431
vn -2.000000 0.000000 0.000000
v 1.000000 1.990000 0.990000 0.721569 0.709804 0.678431
vn -1.000000 0.000000 0.000000
v 1.000000 1.990000 -1.040000 0.721569 0.709804 0.678431
vn 1.999875 0.020098 0.009851
v -1.010000 0.000000 0.990000 0.137255 0.447059 0.090196
vn 0.999937 0.010049 0.004925
v -0.990000 0.000000 -1.040000 0.137255 0.447059 0.090196
vn 1.999875 0.020098 0.009851
v -1.020000 1.990000 -1.040000 0.137255 0.447059 0.090196
vn 0.999937 0.010049 0.004925
v -1.020000 1.990000 0.990000 0.137255 0.447059 0.090196
vn 0.000000 2.000000 0.000000
v 0.530000 0.600000 0.750000 0.721569 0.709804 0.678431
vn 0.000000 1.000000 0.000000
v 0.700000 0.600000 0.170000 0.721569 0.709804 0.678431
vn 0.000000 2.000000 0.000000
v 0.130000 0.600000 0.000000 0.721569 0.709804 0.678431
vn 0.000000 1.000000 0.000000
v -0.050000 0.600000 0.570000 0.721569 0.709804 0.678431
vn -1.907165 0.000000 -0.602263
v -0.050000 0.000000 0.570000 0.721569 0.709804 0.678431
vn -0.953583 0.000000 -0.301131
v -0.050000 0.600000 0.570000 0.721569 0.709804 0.678431
vn -1.907165 0.000000 -0.602263
v 0.130000 0.600000 0.000000 0.721569 0.709804 0.678431
vn -0.953583 0.000000 -0.301131
v 0.130000 0.000000 0.000000 0.721569 0.709804 0.678431
vn -0.592798 0.000000 1.910128
v 0.530000 0.000000 0.750000 0.721569 0.709804 0.678431
vn -0.296399 0.000000 0.955064
v 0.530000 0.600000 0.750000 0.721569 0.709804 0.678431
vn -0.592798 0.000000 1.910128
v -0.050000 0.600000 0.570000 0.721569 0.709804 0.678431
vn -0.296399 0.000000 0.955064
v -0.050000 0.000000 0.570000 0.721569 0.709804 0.678431
vn 3.838514 0.000000 1.125082
v 0.700000 0.000000 0.170000 0.721569 0.709804 0.678431
vn 1.919257 0.000000 0.562541
v 0.700000 0.600000 0.170000 0.721569 0.709804 0.678431
vn 3.838514 0.000000 1.125082
v 0.530000 0.600000 0.750000 0.721569 0.709804 0.678431
vn 1.919257 0.000000 0.562541
v 0.530000 0.000000 0.750000 0.721569 0.709804 0.678431
vn 0.571610 0.000000 -1.916576
v 0.130000 0.000000 0.000000 0.721569 0.709804 0.678431
vn 0.285805 0.000000 -0.958288
v 0.130000 0.600000 0.000000 0.721569 0.709804 0.678431
vn 0.571610 0.000000 -1.916576
v 0.700000 0.600000 0.170000 0.721569 0.709804 0.678431
vn 0.285805 0.000000 -0.958288
v 0.700000 0.000000 0.170000 0.721569 0.709804 0.678431
vn 0.000000 0.000000 0.000000
v 0.530000 0.000000 0.750000 0.721569 0.709804 0.678431
vn 0.000000 0.000000 0.000000
v 0.700000 0.000000 0.170000 0.721569 0.709804 0.678431
vn 0.000000 0.000000 0.000000
v 0.130000 0.000000 0.000000 0.721569 0.709804 0.678431
vn 0.000000 0.000000 0.000000
v -0.050000 0.000000 0.570000 0.721569 0.709804 0.678431
vn 0.000000 2.000000 0.000000
v -0.530000 1.200000 0.090000 0.721569 0.709804 0.678431
vn 0.000000 1.000000 0.000000
v 0.040000 1.200000 -0.090000 0.721569 0.709804 0.678431
vn 0.000000 2.000000 0.000000
v -0.140000 1.200000 -0.670000 0.721569 0.709804 0.678431
vn 0.000000 1.000000 0.000000
v -0.710000 1.200000 -0.490000 0.721569 0.709804 0.678431
vn -1.910128 0.000000 0.592798
v -0.530000 0.000000 0.090000 0.721569 0.709804 0.678431
vn -0.955064 0.000000 0.296399
v -0.530000 1.200000 0.090000 0.721569 0.709804 0.678431
vn -1.910128 0.000000 0.592798
v -0.710000 1.200000 -0.490000 0.721569 0.709804 0.678431
vn -0.955064 0.000000 0.296399
v -0.710000 0.000000 -0.490000 0.721569 0.709804 0.678431
vn -0.602263 0.000000 -1.907165
v -0.710000 0.000000 -0.490000 0.721569 0.709804 0.678431
vn -0.301131 0.000000 -0.953583
v -0.710000 1.200000 -0.490000 0.721569 0.709804 0.678431
vn -0.602263 0.000000 -1.907165
v -0.140000 1.200000 -0.670000 0.721569 0.709804 0.678431
vn -0.301131 0.000000 -0.953583
v -0.140000 0.000000 -0.670000 0.721569 0.709804 0.678431
vn 1.910128 0.000000 -0.592798
v -0.140000 0.000000 -0.670000 0.721569 0.709804 0.678431
vn 0.955064 0.000000 -0.296399
v -0.140000 1.200000 -0.670000 0.721569 0.709804 0.678431
vn 1.910128 0.000000 -0.592798
v 0.040000 1.200000 -0.090000 0.721569 0.709804 0.678431
vn 0.955064 0.000000 -0.296399
v 0.040000 0.000000 -0.090000 0.721569 0.709804 0.678431
vn 1.204526 0.000000 3.814331
v 0.040000 0.000000 -0.090000 0.721569 0.709804 0.678431
vn 0.602263 0.000000 1.907165
v 0.040000 1.200000 -0.090000 0.721569 0.709804 0.678431
vn 1.204526 0.000000 3.814331
v -0.530000 1.200000 0.090000 0.721569 0.709804 0.678431
vn 0.602263 0.000000 1.907165
v -0.530000 0.000000 0.090000 0.721569 0.709804 0.678431
vn 0.000000 0.000000 0.000000
v -0.530000 0.000000 0.090000 0.721569 0.709804 0.678431
vn 0.000000 0.000000 0.000000
v 0.040000 0.000000 -0.090000 0.721569 0.709804 0.678431
vn 0.000000 0.000000 0.000000
v -0.140000 0.000000 -0.670000 0.721569 0.709804 0.678431
vn 0.000000 0.000000 0.000000
v -0.710000 0.000000 -0.490000 0.721569 0.709804 0.678431
# 68 vertices, 0 vertices normals


usemtl material_0
f 1//1 2//2 3//3
f 1//1 3//3 4//4
f 5//5 6//6 7//7
f 5//5 7//7 8//8
f 9//9 10//10 11//11
f 9//9 11//11 12//12

usemtl material_1
f 13//13 14//14 15//15
f 13//13 15//15 16//16

usemtl material_2
f 17//17 18//18 19//19
f 17//17 19//19 20//20

usemtl material_0
f 21//21 22//22 23//23
f 21//21 23//23 24//24
f 25//25 26//26 27//27
f 25//25 27//27 28//28
f 29//29 30//30 31//31
f 29//29 31//31 32//32
f 33//33 34//34 35//35
f 33//33 35//35 36//36
f 37//37 38//38 39//39
f 37//37 39//39 40//40
f 33//33 34//34 35//35
f 33//33 35//35 36//36
f 45//45 46//46 47//47
f 45//45 47//47 48//48
f 49//49 50//50 51//51
f 49//49 51//51 52//52
f 53//53 54//54 55//55
f 53//53 55//55 56//56
f 57//57 58//58 59//59
f 57//57 59//59 60//60
f 61//61 62//62 63//63
f 61//61 63//63 64//64
f 61//61 62//62 63//63
f 61//61 63//63 64//64
# 34 faces, 0 coords texture

# End of File
