####
#
# OBJ File Generated by Meshlab
#
####
# Object CornellBox.obj
#
# Vertices: 68
# Faces: 34
#
####
mtllib ./CornellBox.mtl

vn 0.000000 2.000000 0.000000
v -0.985222 -0.9802958900000001 1.00000033
vn 0.000000 1.000000 0.000000
v 0.99507422 -0.9802958900000001 1.00000033
vn 0.000000 2.000000 0.000000
v 0.99507422 -0.9802958900000001 -1.0000003300000002
vn 0.000000 1.000000 0.000000
v -0.96551756 -0.9802958900000001 -1.0000003300000002
vn 0.000000 -2.000000 0.000000
v -0.99507422 0.9802958900000001 1.00000033
vn 0.000000 -1.000000 0.000000
v -0.99507422 0.9802958900000001 -1.0000003300000002
vn 0.000000 -2.000000 0.000000
v 0.99507422 0.9802958900000001 -1.0000003300000002
vn 0.000000 -1.000000 0.000000
v 0.99507422 0.9802958900000001 1.00000033
vn 0.000000 0.000000 2.000000
v -0.96551756 -0.9802958900000001 -1.0000003300000002
vn 0.000000 0.000000 1.000000
v 0.99507422 -0.9802958900000001 -1.0000003300000002
vn 0.000000 0.000000 2.000000
v 0.99507422 0.9802958900000001 -1.0000003300000002
vn 0.000000 0.000000 1.000000
v -0.99507422 0.9802958900000001 -1.0000003300000002
vn -2.000000 0.000000 0.000000
v 0.99507422 -0.9802958900000001 -1.0000003300000002
vn -1.000000 0.000000 0.000000
v 0.99507422 -0.9802958900000001 1.00000033
vn -2.000000 0.000000 0.000000
v 0.99507422 0.9802958900000001 1.00000033
vn -1.000000 0.000000 0.000000
v 0.99507422 0.9802958900000001 -1.0000003300000002
vn 1.999875 0.020098 0.009851
v -0.985222 -0.9802958900000001 1.00000033
vn 0.999937 0.010049 0.004925
v -0.96551756 -0.9802958900000001 -1.0000003300000002
vn 1.999875 0.020098 0.009851
v -0.99507422 0.9802958900000001 -1.0000003300000002
vn 0.999937 0.010049 0.004925
v -0.99507422 0.9802958900000001 1.00000033
vn 0.000000 2.000000 0.000000
v 0.5320198800000001 -0.38916269000000003 0.76354705
vn 0.000000 1.000000 0.000000
v 0.69950762 -0.38916269000000003 0.19211829000000002
vn 0.000000 2.000000 0.000000
v 0.13793108 -0.38916269000000003 0.02463055
vn 0.000000 1.000000 0.000000
v -0.03940888 -0.38916269000000003 0.58620709
vn -1.907165 0.000000 -0.602263
v -0.03940888 -0.9802958900000001 0.58620709
vn -0.953583 0.000000 -0.301131
v -0.03940888 -0.38916269000000003 0.58620709
vn -1.907165 0.000000 -0.602263
v 0.13793108 -0.38916269000000003 0.02463055
vn -0.953583 0.000000 -0.301131
v 0.13793108 -0.9802958900000001 0.02463055
vn -0.592798 0.000000 1.910128
v 0.5320198800000001 -0.9802958900000001 0.76354705
vn -0.296399 0.000000 0.955064
v 0.5320198800000001 -0.38916269000000003 0.76354705
vn -0.592798 0.000000 1.910128
v -0.03940888 -0.38916269000000003 0.58620709
vn -0.296399 0.000000 0.955064
v -0.03940888 -0.9802958900000001 0.58620709
vn 3.838514 0.000000 1.125082
v 0.69950762 -0.9802958900000001 0.19211829000000002
vn 1.919257 0.000000 0.562541
v 0.69950762 -0.38916269000000003 0.19211829000000002
vn 3.838514 0.000000 1.125082
v 0.5320198800000001 -0.38916269000000003 0.76354705
vn 1.919257 0.000000 0.562541
v 0.5320198800000001 -0.9802958900000001 0.76354705
vn 0.571610 0.000000 -1.916576
v 0.13793108 -0.9802958900000001 0.02463055
vn 0.285805 0.000000 -0.958288
v 0.13793108 -0.38916269000000003 0.02463055
vn 0.571610 0.000000 -1.916576
v 0.69950762 -0.38916269000000003 0.19211829000000002
vn 0.285805 0.000000 -0.958288
v 0.69950762 -0.9802958900000001 0.19211829000000002
vn 0.000000 0.000000 0.000000
v 0.5320198800000001 -0.9802958900000001 0.76354705
vn 0.000000 0.000000 0.000000
v 0.69950762 -0.9802958900000001 0.19211829000000002
vn 0.000000 0.000000 0.000000
v 0.13793108 -0.9802958900000001 0.02463055
vn 0.000000 0.000000 0.000000
v -0.03940888 -0.9802958900000001 0.58620709
vn 0.000000 2.000000 0.000000
v -0.5123154400000001 0.20197050999999996 0.11330053
vn 0.000000 1.000000 0.000000
v 0.0492611 0.20197050999999996 -0.06403943000000001
vn 0.000000 2.000000 0.000000
v -0.12807886000000002 0.20197050999999996 -0.6354681900000001
vn 0.000000 1.000000 0.000000
v -0.6896554 0.20197050999999996 -0.45812822999999997
vn -1.910128 0.000000 0.592798
v -0.5123154400000001 -0.9802958900000001 0.11330053
vn -0.955064 0.000000 0.296399
v -0.5123154400000001 0.20197050999999996 0.11330053
vn -1.910128 0.000000 0.592798
v -0.6896554 0.20197050999999996 -0.45812822999999997
vn -0.955064 0.000000 0.296399
v -0.6896554 -0.9802958900000001 -0.45812822999999997
vn -0.602263 0.000000 -1.907165
v -0.6896554 -0.9802958900000001 -0.45812822999999997
vn -0.301131 0.000000 -0.953583
v -0.6896554 0.20197050999999996 -0.45812822999999997
vn -0.602263 0.000000 -1.907165
v -0.12807886000000002 0.20197050999999996 -0.6354681900000001
vn -0.301131 0.000000 -0.953583
v -0.12807886000000002 -0.9802958900000001 -0.6354681900000001
vn 1.910128 0.000000 -0.592798
v -0.12807886000000002 -0.9802958900000001 -0.6354681900000001
vn 0.955064 0.000000 -0.296399
v -0.12807886000000002 0.20197050999999996 -0.6354681900000001
vn 1.910128 0.000000 -0.592798
v 0.0492611 0.20197050999999996 -0.06403943000000001
vn 0.955064 0.000000 -0.296399
v 0.0492611 -0.9802958900000001 -0.06403943000000001
vn 1.204526 0.000000 3.814331
v 0.0492611 -0.9802958900000001 -0.06403943000000001
vn 0.602263 0.000000 1.907165
v 0.0492611 0.20197050999999996 -0.06403943000000001
vn 1.204526 0.000000 3.814331
v -0.5123154400000001 0.20197050999999996 0.11330053
vn 0.602263 0.000000 1.907165
v -0.5123154400000001 -0.9802958900000001 0.11330053
vn 0.000000 0.000000 0.000000
v -0.5123154400000001 -0.9802958900000001 0.11330053
vn 0.000000 0.000000 0.000000
v 0.0492611 -0.9802958900000001 -0.06403943000000001
vn 0.000000 0.000000 0.000000
v -0.12807886000000002 -0.9802958900000001 -0.6354681900000001
vn 0.000000 0.000000 0.000000
v -0.6896554 -0.9802958900000001 -0.45812822999999997
# 68 vertices, 0 vertices normals


usemtl material_0
f 1//1 2//2 3//3
f 1//1 3//3 4//4
f 5//5 6//6 7//7
f 5//5 7//7 8//8
f 9//9 10//10 11//11
f 9//9 11//11 12//12

usemtl material_1
f 13//13 14//14 15//15
f 13//13 15//15 16//16

usemtl material_2
f 17//17 18//18 19//19
f 17//17 19//19 20//20

usemtl material_0
f 21//21 22//22 23//23
f 21//21 23//23 24//24
f 25//25 26//26 27//27
f 25//25 27//27 28//28
f 29//29 30//30 31//31
f 29//29 31//31 32//32
f 33//33 34//34 35//35
f 33//33 35//35 36//36
f 37//37 38//38 39//39
f 37//37 39//39 40//40
f 33//33 34//34 35//35
f 33//33 35//35 36//36
f 45//45 46//46 47//47
f 45//45 47//47 48//48
f 49//49 50//50 51//51
f 49//49 51//51 52//52
f 53//53 54//54 55//55
f 53//53 55//55 56//56
f 57//57 58//58 59//59
f 57//57 59//59 60//60
f 61//61 62//62 63//63
f 61//61 63//63 64//64
f 61//61 62//62 63//63
f 61//61 63//63 64//64
# 34 faces, 0 coords texture

# End of File
